<?xml version="1.0" encoding="UTF-8" standalone="no"?>
<!DOCTYPE svg PUBLIC "-//W3C//DTD SVG 1.0//EN"
 "http://www.w3.org/TR/2001/REC-SVG-20010904/DTD/svg10.dtd" [
 <!ATTLIST svg xmlns:xlink CDATA #FIXED "http://www.w3.org/1999/xlink">
]>
<!-- Generated by Graphviz version 2.20.2 (Tue Mar &#160;2 19:03:41 UTC 2010)
     For user: (fabrizio) fabrizio,,, -->
<!-- Title: controllers_diagram Pages: 1 -->
<svg width="489pt" height="609pt"
 viewBox="0.00 0.00 489.00 609.00" xmlns="http://www.w3.org/2000/svg" xmlns:xlink="http://www.w3.org/1999/xlink">
<g id="graph0" class="graph" transform="scale(1 1) rotate(0) translate(4 605)">
<title>controllers_diagram</title>
<polygon style="fill:white;stroke:white;" points="-4,4 -4,-605 485,-605 485,4 -4,4"/>
<!-- _diagram_info -->
<g id="node1" class="node"><title>_diagram_info</title>
<text text-anchor="start" x="217.5" y="-364.4" style="font-family:Times New Roman;font-size:11.00;">Controllers diagram</text>
<text text-anchor="start" x="217.5" y="-347.4" style="font-family:Times New Roman;font-size:11.00;">Date: May 26 2011 &#45; 18:55</text>
<text text-anchor="start" x="217.5" y="-330.4" style="font-family:Times New Roman;font-size:11.00;">Migration version: 20110526191148</text>
<text text-anchor="start" x="217.5" y="-313.4" style="font-family:Times New Roman;font-size:11.00;">Generated by RailRoad 0.5.0</text>
</g>
<!-- ProductsController -->
<g id="node2" class="node"><title>ProductsController</title>
<polyline style="fill:none;stroke:black;" points="51,-304 172,-304 "/>
<path style="fill:none;stroke:black;" d="M172,-304C178,-304 184,-310 184,-316"/>
<polyline style="fill:none;stroke:black;" points="184,-316 184,-493 "/>
<path style="fill:none;stroke:black;" d="M184,-493C184,-499 178,-505 172,-505"/>
<polyline style="fill:none;stroke:black;" points="172,-505 51,-505 "/>
<path style="fill:none;stroke:black;" d="M51,-505C45,-505 39,-499 39,-493"/>
<polyline style="fill:none;stroke:black;" points="39,-493 39,-316 "/>
<path style="fill:none;stroke:black;" d="M39,-316C39,-310 45,-304 51,-304"/>
<text text-anchor="middle" x="111" y="-487.9" style="font-family:Times New Roman;font-size:11.00;">ProductsController</text>
<polyline style="fill:none;stroke:black;" points="39,-480 184,-480 "/>
<text text-anchor="start" x="46.5" y="-462.9" style="font-family:Times New Roman;font-size:11.00;">create</text>
<text text-anchor="start" x="46.5" y="-445.9" style="font-family:Times New Roman;font-size:11.00;">destroy</text>
<text text-anchor="start" x="46.5" y="-428.9" style="font-family:Times New Roman;font-size:11.00;">edit</text>
<text text-anchor="start" x="46.5" y="-411.9" style="font-family:Times New Roman;font-size:11.00;">index</text>
<text text-anchor="start" x="46.5" y="-394.9" style="font-family:Times New Roman;font-size:11.00;">new</text>
<text text-anchor="start" x="46.5" y="-377.9" style="font-family:Times New Roman;font-size:11.00;">show</text>
<text text-anchor="start" x="46.5" y="-360.9" style="font-family:Times New Roman;font-size:11.00;">update</text>
<polyline style="fill:none;stroke:black;" points="39,-353 184,-353 "/>
<polyline style="fill:none;stroke:black;" points="39,-329 184,-329 "/>
<text text-anchor="start" x="46.5" y="-311.9" style="font-family:Times New Roman;font-size:11.00;">_layout</text>
</g>
<!-- LineItemsController -->
<g id="node3" class="node"><title>LineItemsController</title>
<polyline style="fill:none;stroke:black;" points="260,-76 389,-76 "/>
<path style="fill:none;stroke:black;" d="M389,-76C395,-76 401,-82 401,-88"/>
<polyline style="fill:none;stroke:black;" points="401,-88 401,-265 "/>
<path style="fill:none;stroke:black;" d="M401,-265C401,-271 395,-277 389,-277"/>
<polyline style="fill:none;stroke:black;" points="389,-277 260,-277 "/>
<path style="fill:none;stroke:black;" d="M260,-277C254,-277 248,-271 248,-265"/>
<polyline style="fill:none;stroke:black;" points="248,-265 248,-88 "/>
<path style="fill:none;stroke:black;" d="M248,-88C248,-82 254,-76 260,-76"/>
<text text-anchor="middle" x="324" y="-259.9" style="font-family:Times New Roman;font-size:11.00;">LineItemsController</text>
<polyline style="fill:none;stroke:black;" points="248,-252 401,-252 "/>
<text text-anchor="start" x="255.5" y="-234.9" style="font-family:Times New Roman;font-size:11.00;">create</text>
<text text-anchor="start" x="255.5" y="-217.9" style="font-family:Times New Roman;font-size:11.00;">destroy</text>
<text text-anchor="start" x="255.5" y="-200.9" style="font-family:Times New Roman;font-size:11.00;">edit</text>
<text text-anchor="start" x="255.5" y="-183.9" style="font-family:Times New Roman;font-size:11.00;">index</text>
<text text-anchor="start" x="255.5" y="-166.9" style="font-family:Times New Roman;font-size:11.00;">new</text>
<text text-anchor="start" x="255.5" y="-149.9" style="font-family:Times New Roman;font-size:11.00;">show</text>
<text text-anchor="start" x="255.5" y="-132.9" style="font-family:Times New Roman;font-size:11.00;">update</text>
<polyline style="fill:none;stroke:black;" points="248,-125 401,-125 "/>
<polyline style="fill:none;stroke:black;" points="248,-101 401,-101 "/>
<text text-anchor="start" x="255.5" y="-83.9" style="font-family:Times New Roman;font-size:11.00;">_layout</text>
</g>
<!-- CartsController -->
<g id="node4" class="node"><title>CartsController</title>
<polyline style="fill:none;stroke:black;" points="317,-399 415,-399 "/>
<path style="fill:none;stroke:black;" d="M415,-399C421,-399 427,-405 427,-411"/>
<polyline style="fill:none;stroke:black;" points="427,-411 427,-588 "/>
<path style="fill:none;stroke:black;" d="M427,-588C427,-594 421,-600 415,-600"/>
<polyline style="fill:none;stroke:black;" points="415,-600 317,-600 "/>
<path style="fill:none;stroke:black;" d="M317,-600C311,-600 305,-594 305,-588"/>
<polyline style="fill:none;stroke:black;" points="305,-588 305,-411 "/>
<path style="fill:none;stroke:black;" d="M305,-411C305,-405 311,-399 317,-399"/>
<text text-anchor="middle" x="366" y="-582.9" style="font-family:Times New Roman;font-size:11.00;">CartsController</text>
<polyline style="fill:none;stroke:black;" points="305,-575 427,-575 "/>
<text text-anchor="start" x="313" y="-557.9" style="font-family:Times New Roman;font-size:11.00;">create</text>
<text text-anchor="start" x="313" y="-540.9" style="font-family:Times New Roman;font-size:11.00;">destroy</text>
<text text-anchor="start" x="313" y="-523.9" style="font-family:Times New Roman;font-size:11.00;">edit</text>
<text text-anchor="start" x="313" y="-506.9" style="font-family:Times New Roman;font-size:11.00;">index</text>
<text text-anchor="start" x="313" y="-489.9" style="font-family:Times New Roman;font-size:11.00;">new</text>
<text text-anchor="start" x="313" y="-472.9" style="font-family:Times New Roman;font-size:11.00;">show</text>
<text text-anchor="start" x="313" y="-455.9" style="font-family:Times New Roman;font-size:11.00;">update</text>
<polyline style="fill:none;stroke:black;" points="305,-448 427,-448 "/>
<polyline style="fill:none;stroke:black;" points="305,-424 427,-424 "/>
<text text-anchor="start" x="313" y="-406.9" style="font-family:Times New Roman;font-size:11.00;">_layout</text>
</g>
<!-- StoreController -->
<g id="node5" class="node"><title>StoreController</title>
<polyline style="fill:none;stroke:black;" points="127,-0 226,-0 "/>
<path style="fill:none;stroke:black;" d="M226,-0C232,-0 238,-6 238,-12"/>
<polyline style="fill:none;stroke:black;" points="238,-12 238,-87 "/>
<path style="fill:none;stroke:black;" d="M238,-87C238,-93 232,-99 226,-99"/>
<polyline style="fill:none;stroke:black;" points="226,-99 127,-99 "/>
<path style="fill:none;stroke:black;" d="M127,-99C121,-99 115,-93 115,-87"/>
<polyline style="fill:none;stroke:black;" points="115,-87 115,-12 "/>
<path style="fill:none;stroke:black;" d="M115,-12C115,-6 121,-0 127,-0"/>
<text text-anchor="middle" x="176" y="-81.9" style="font-family:Times New Roman;font-size:11.00;">StoreController</text>
<polyline style="fill:none;stroke:black;" points="115,-74 238,-74 "/>
<text text-anchor="start" x="122.5" y="-56.9" style="font-family:Times New Roman;font-size:11.00;">index</text>
<polyline style="fill:none;stroke:black;" points="115,-49 238,-49 "/>
<polyline style="fill:none;stroke:black;" points="115,-25 238,-25 "/>
<text text-anchor="start" x="122.5" y="-7.9" style="font-family:Times New Roman;font-size:11.00;">_layout</text>
</g>
<!-- ApplicationController -->
<g id="node6" class="node"><title>ApplicationController</title>
<polyline style="fill:none;stroke:black;" points="13,-114 217,-114 "/>
<path style="fill:none;stroke:black;" d="M217,-114C223,-114 229,-120 229,-126"/>
<polyline style="fill:none;stroke:black;" points="229,-126 229,-269 "/>
<path style="fill:none;stroke:black;" d="M229,-269C229,-275 223,-281 217,-281"/>
<polyline style="fill:none;stroke:black;" points="217,-281 13,-281 "/>
<path style="fill:none;stroke:black;" d="M13,-281C7,-281 1,-275 1,-269"/>
<polyline style="fill:none;stroke:black;" points="1,-269 1,-126 "/>
<path style="fill:none;stroke:black;" d="M1,-126C1,-120 7,-114 13,-114"/>
<text text-anchor="middle" x="115" y="-263.9" style="font-family:Times New Roman;font-size:11.00;">ApplicationController</text>
<polyline style="fill:none;stroke:black;" points="1,-256 229,-256 "/>
<text text-anchor="start" x="9" y="-238.9" style="font-family:Times New Roman;font-size:11.00;">_one_time_conditions_valid_8?</text>
<polyline style="fill:none;stroke:black;" points="1,-231 229,-231 "/>
<polyline style="fill:none;stroke:black;" points="1,-207 229,-207 "/>
<text text-anchor="start" x="9" y="-189.9" style="font-family:Times New Roman;font-size:11.00;">_layout</text>
<text text-anchor="start" x="9" y="-172.9" style="font-family:Times New Roman;font-size:11.00;">_run_process_action_callbacks</text>
<text text-anchor="start" x="9" y="-155.9" style="font-family:Times New Roman;font-size:11.00;">current_cart</text>
<text text-anchor="start" x="9" y="-138.9" style="font-family:Times New Roman;font-size:11.00;">increment_session_counter</text>
<text text-anchor="start" x="9" y="-121.9" style="font-family:Times New Roman;font-size:11.00;">reset_session_counter</text>
</g>
</g>
</svg>
