<?xml version="1.0" encoding="UTF-8" standalone="no"?>
<!DOCTYPE svg PUBLIC "-//W3C//DTD SVG 1.0//EN"
 "http://www.w3.org/TR/2001/REC-SVG-20010904/DTD/svg10.dtd" [
 <!ATTLIST svg xmlns:xlink CDATA #FIXED "http://www.w3.org/1999/xlink">
]>
<!-- Generated by Graphviz version 2.20.2 (Tue Mar &#160;2 19:03:41 UTC 2010)
     For user: (fabrizio) fabrizio,,, -->
<!-- Title: controllers_diagram Pages: 1 -->
<svg width="600pt" height="552pt"
 viewBox="0.00 0.00 600.00 552.00" xmlns="http://www.w3.org/2000/svg" xmlns:xlink="http://www.w3.org/1999/xlink">
<g id="graph0" class="graph" transform="scale(1 1) rotate(0) translate(4 548)">
<title>controllers_diagram</title>
<polygon style="fill:white;stroke:white;" points="-4,4 -4,-548 596,-548 596,4 -4,4"/>
<!-- _diagram_info -->
<g id="node1" class="node"><title>_diagram_info</title>
<text text-anchor="start" x="350.5" y="-77.8" style="font-family:Times New Roman;font-size:13.00;">Controllers diagram</text>
<text text-anchor="start" x="350.5" y="-60.8" style="font-family:Times New Roman;font-size:13.00;">Date: May 26 2011 &#45; 19:00</text>
<text text-anchor="start" x="350.5" y="-43.8" style="font-family:Times New Roman;font-size:13.00;">Migration version: 20110526191148</text>
<text text-anchor="start" x="350.5" y="-26.8" style="font-family:Times New Roman;font-size:13.00;">Generated by RailRoady 1.0.2</text>
<text text-anchor="start" x="350.5" y="-9.8" style="font-family:Times New Roman;font-size:13.00;">http://railroady.prestonlee.com</text>
</g>
<!-- ProductsController -->
<g id="node2" class="node"><title>ProductsController</title>
<polyline style="fill:none;stroke:black;" points="317,-228 438,-228 "/>
<path style="fill:none;stroke:black;" d="M438,-228C444,-228 450,-234 450,-240"/>
<polyline style="fill:none;stroke:black;" points="450,-240 450,-417 "/>
<path style="fill:none;stroke:black;" d="M450,-417C450,-423 444,-429 438,-429"/>
<polyline style="fill:none;stroke:black;" points="438,-429 317,-429 "/>
<path style="fill:none;stroke:black;" d="M317,-429C311,-429 305,-423 305,-417"/>
<polyline style="fill:none;stroke:black;" points="305,-417 305,-240 "/>
<path style="fill:none;stroke:black;" d="M305,-240C305,-234 311,-228 317,-228"/>
<text text-anchor="middle" x="377" y="-411.9" style="font-family:Times New Roman;font-size:14.00;">ProductsController</text>
<polyline style="fill:none;stroke:black;" points="305,-404 450,-404 "/>
<text text-anchor="start" x="312.5" y="-386.9" style="font-family:Times New Roman;font-size:14.00;">create</text>
<text text-anchor="start" x="312.5" y="-369.9" style="font-family:Times New Roman;font-size:14.00;">destroy</text>
<text text-anchor="start" x="312.5" y="-352.9" style="font-family:Times New Roman;font-size:14.00;">edit</text>
<text text-anchor="start" x="312.5" y="-335.9" style="font-family:Times New Roman;font-size:14.00;">index</text>
<text text-anchor="start" x="312.5" y="-318.9" style="font-family:Times New Roman;font-size:14.00;">new</text>
<text text-anchor="start" x="312.5" y="-301.9" style="font-family:Times New Roman;font-size:14.00;">show</text>
<text text-anchor="start" x="312.5" y="-284.9" style="font-family:Times New Roman;font-size:14.00;">update</text>
<polyline style="fill:none;stroke:black;" points="305,-277 450,-277 "/>
<polyline style="fill:none;stroke:black;" points="305,-253 450,-253 "/>
<text text-anchor="start" x="312.5" y="-235.9" style="font-family:Times New Roman;font-size:14.00;">_layout</text>
</g>
<!-- LineItemsController -->
<g id="node3" class="node"><title>LineItemsController</title>
<polyline style="fill:none;stroke:black;" points="146,-228 275,-228 "/>
<path style="fill:none;stroke:black;" d="M275,-228C281,-228 287,-234 287,-240"/>
<polyline style="fill:none;stroke:black;" points="287,-240 287,-417 "/>
<path style="fill:none;stroke:black;" d="M287,-417C287,-423 281,-429 275,-429"/>
<polyline style="fill:none;stroke:black;" points="275,-429 146,-429 "/>
<path style="fill:none;stroke:black;" d="M146,-429C140,-429 134,-423 134,-417"/>
<polyline style="fill:none;stroke:black;" points="134,-417 134,-240 "/>
<path style="fill:none;stroke:black;" d="M134,-240C134,-234 140,-228 146,-228"/>
<text text-anchor="middle" x="210" y="-411.9" style="font-family:Times New Roman;font-size:14.00;">LineItemsController</text>
<polyline style="fill:none;stroke:black;" points="134,-404 287,-404 "/>
<text text-anchor="start" x="141.5" y="-386.9" style="font-family:Times New Roman;font-size:14.00;">create</text>
<text text-anchor="start" x="141.5" y="-369.9" style="font-family:Times New Roman;font-size:14.00;">destroy</text>
<text text-anchor="start" x="141.5" y="-352.9" style="font-family:Times New Roman;font-size:14.00;">edit</text>
<text text-anchor="start" x="141.5" y="-335.9" style="font-family:Times New Roman;font-size:14.00;">index</text>
<text text-anchor="start" x="141.5" y="-318.9" style="font-family:Times New Roman;font-size:14.00;">new</text>
<text text-anchor="start" x="141.5" y="-301.9" style="font-family:Times New Roman;font-size:14.00;">show</text>
<text text-anchor="start" x="141.5" y="-284.9" style="font-family:Times New Roman;font-size:14.00;">update</text>
<polyline style="fill:none;stroke:black;" points="134,-277 287,-277 "/>
<polyline style="fill:none;stroke:black;" points="134,-253 287,-253 "/>
<text text-anchor="start" x="141.5" y="-235.9" style="font-family:Times New Roman;font-size:14.00;">_layout</text>
</g>
<!-- CartsController -->
<g id="node4" class="node"><title>CartsController</title>
<polyline style="fill:none;stroke:black;" points="13,-342 111,-342 "/>
<path style="fill:none;stroke:black;" d="M111,-342C117,-342 123,-348 123,-354"/>
<polyline style="fill:none;stroke:black;" points="123,-354 123,-531 "/>
<path style="fill:none;stroke:black;" d="M123,-531C123,-537 117,-543 111,-543"/>
<polyline style="fill:none;stroke:black;" points="111,-543 13,-543 "/>
<path style="fill:none;stroke:black;" d="M13,-543C7,-543 1,-537 1,-531"/>
<polyline style="fill:none;stroke:black;" points="1,-531 1,-354 "/>
<path style="fill:none;stroke:black;" d="M1,-354C1,-348 7,-342 13,-342"/>
<text text-anchor="middle" x="62" y="-525.9" style="font-family:Times New Roman;font-size:14.00;">CartsController</text>
<polyline style="fill:none;stroke:black;" points="1,-518 123,-518 "/>
<text text-anchor="start" x="9" y="-500.9" style="font-family:Times New Roman;font-size:14.00;">create</text>
<text text-anchor="start" x="9" y="-483.9" style="font-family:Times New Roman;font-size:14.00;">destroy</text>
<text text-anchor="start" x="9" y="-466.9" style="font-family:Times New Roman;font-size:14.00;">edit</text>
<text text-anchor="start" x="9" y="-449.9" style="font-family:Times New Roman;font-size:14.00;">index</text>
<text text-anchor="start" x="9" y="-432.9" style="font-family:Times New Roman;font-size:14.00;">new</text>
<text text-anchor="start" x="9" y="-415.9" style="font-family:Times New Roman;font-size:14.00;">show</text>
<text text-anchor="start" x="9" y="-398.9" style="font-family:Times New Roman;font-size:14.00;">update</text>
<polyline style="fill:none;stroke:black;" points="1,-391 123,-391 "/>
<polyline style="fill:none;stroke:black;" points="1,-367 123,-367 "/>
<text text-anchor="start" x="9" y="-349.9" style="font-family:Times New Roman;font-size:14.00;">_layout</text>
</g>
<!-- StoreController -->
<g id="node5" class="node"><title>StoreController</title>
<polyline style="fill:none;stroke:black;" points="355,-114 454,-114 "/>
<path style="fill:none;stroke:black;" d="M454,-114C460,-114 466,-120 466,-126"/>
<polyline style="fill:none;stroke:black;" points="466,-126 466,-201 "/>
<path style="fill:none;stroke:black;" d="M466,-201C466,-207 460,-213 454,-213"/>
<polyline style="fill:none;stroke:black;" points="454,-213 355,-213 "/>
<path style="fill:none;stroke:black;" d="M355,-213C349,-213 343,-207 343,-201"/>
<polyline style="fill:none;stroke:black;" points="343,-201 343,-126 "/>
<path style="fill:none;stroke:black;" d="M343,-126C343,-120 349,-114 355,-114"/>
<text text-anchor="middle" x="404" y="-195.9" style="font-family:Times New Roman;font-size:14.00;">StoreController</text>
<polyline style="fill:none;stroke:black;" points="343,-188 466,-188 "/>
<text text-anchor="start" x="350.5" y="-170.9" style="font-family:Times New Roman;font-size:14.00;">index</text>
<polyline style="fill:none;stroke:black;" points="343,-163 466,-163 "/>
<polyline style="fill:none;stroke:black;" points="343,-139 466,-139 "/>
<text text-anchor="start" x="350.5" y="-121.9" style="font-family:Times New Roman;font-size:14.00;">_layout</text>
</g>
<!-- ApplicationController -->
<g id="node6" class="node"><title>ApplicationController</title>
<polyline style="fill:none;stroke:black;" points="108,-38 312,-38 "/>
<path style="fill:none;stroke:black;" d="M312,-38C318,-38 324,-44 324,-50"/>
<polyline style="fill:none;stroke:black;" points="324,-50 324,-193 "/>
<path style="fill:none;stroke:black;" d="M324,-193C324,-199 318,-205 312,-205"/>
<polyline style="fill:none;stroke:black;" points="312,-205 108,-205 "/>
<path style="fill:none;stroke:black;" d="M108,-205C102,-205 96,-199 96,-193"/>
<polyline style="fill:none;stroke:black;" points="96,-193 96,-50 "/>
<path style="fill:none;stroke:black;" d="M96,-50C96,-44 102,-38 108,-38"/>
<text text-anchor="middle" x="210" y="-187.9" style="font-family:Times New Roman;font-size:14.00;">ApplicationController</text>
<polyline style="fill:none;stroke:black;" points="96,-180 324,-180 "/>
<text text-anchor="start" x="104" y="-162.9" style="font-family:Times New Roman;font-size:14.00;">_one_time_conditions_valid_8?</text>
<polyline style="fill:none;stroke:black;" points="96,-155 324,-155 "/>
<polyline style="fill:none;stroke:black;" points="96,-131 324,-131 "/>
<text text-anchor="start" x="104" y="-113.9" style="font-family:Times New Roman;font-size:14.00;">_layout</text>
<text text-anchor="start" x="104" y="-96.9" style="font-family:Times New Roman;font-size:14.00;">_run_process_action_callbacks</text>
<text text-anchor="start" x="104" y="-79.9" style="font-family:Times New Roman;font-size:14.00;">current_cart</text>
<text text-anchor="start" x="104" y="-62.9" style="font-family:Times New Roman;font-size:14.00;">increment_session_counter</text>
<text text-anchor="start" x="104" y="-45.9" style="font-family:Times New Roman;font-size:14.00;">reset_session_counter</text>
</g>
</g>
</svg>
