<?xml version="1.0" encoding="UTF-8" standalone="no"?>
<!DOCTYPE svg PUBLIC "-//W3C//DTD SVG 1.0//EN"
 "http://www.w3.org/TR/2001/REC-SVG-20010904/DTD/svg10.dtd" [
 <!ATTLIST svg xmlns:xlink CDATA #FIXED "http://www.w3.org/1999/xlink">
]>
<!-- Generated by Graphviz version 2.20.2 (Tue Mar &#160;2 19:03:41 UTC 2010)
     For user: (fabrizio) fabrizio,,, -->
<!-- Title: models_diagram Pages: 1 -->
<svg width="620pt" height="248pt"
 viewBox="0.00 0.00 620.00 248.00" xmlns="http://www.w3.org/2000/svg" xmlns:xlink="http://www.w3.org/1999/xlink">
<g id="graph0" class="graph" transform="scale(1 1) rotate(0) translate(4 244)">
<title>models_diagram</title>
<polygon style="fill:white;stroke:white;" points="-4,4 -4,-244 616,-244 616,4 -4,4"/>
<!-- _diagram_info -->
<g id="node1" class="node"><title>_diagram_info</title>
<text text-anchor="start" x="7.5" y="-202.8" style="font-family:Times New Roman;font-size:13.00;">Models diagram</text>
<text text-anchor="start" x="7.5" y="-185.8" style="font-family:Times New Roman;font-size:13.00;">Date: May 26 2011 &#45; 18:59</text>
<text text-anchor="start" x="7.5" y="-168.8" style="font-family:Times New Roman;font-size:13.00;">Migration version: 20110526191148</text>
<text text-anchor="start" x="7.5" y="-151.8" style="font-family:Times New Roman;font-size:13.00;">Generated by RailRoady 1.0.2</text>
<text text-anchor="start" x="7.5" y="-134.8" style="font-family:Times New Roman;font-size:13.00;">http://railroady.prestonlee.com</text>
</g>
<!-- LineItem -->
<g id="node2" class="node"><title>LineItem</title>
<polyline style="fill:none;stroke:black;" points="369,-0 510,-0 "/>
<path style="fill:none;stroke:black;" d="M510,-0C516,-0 522,-6 522,-12"/>
<polyline style="fill:none;stroke:black;" points="522,-12 522,-55 "/>
<path style="fill:none;stroke:black;" d="M522,-55C522,-61 516,-67 510,-67"/>
<polyline style="fill:none;stroke:black;" points="510,-67 369,-67 "/>
<path style="fill:none;stroke:black;" d="M369,-67C363,-67 357,-61 357,-55"/>
<polyline style="fill:none;stroke:black;" points="357,-55 357,-12 "/>
<path style="fill:none;stroke:black;" d="M357,-12C357,-6 363,-0 369,-0"/>
<text text-anchor="middle" x="439" y="-49.9" style="font-family:Times New Roman;font-size:14.00;">LineItem</text>
<polyline style="fill:none;stroke:black;" points="357,-42 522,-42 "/>
<text text-anchor="start" x="364.5" y="-25.4" style="font-family:Times New Roman;font-size:14.00;">created_at :datetime</text>
<text text-anchor="start" x="364.5" y="-8.4" style="font-family:Times New Roman;font-size:14.00;">updated_at :datetime</text>
</g>
<!-- Cart -->
<g id="node3" class="node"><title>Cart</title>
<polyline style="fill:none;stroke:black;" points="278,-138 419,-138 "/>
<path style="fill:none;stroke:black;" d="M419,-138C425,-138 431,-144 431,-150"/>
<polyline style="fill:none;stroke:black;" points="431,-150 431,-193 "/>
<path style="fill:none;stroke:black;" d="M431,-193C431,-199 425,-205 419,-205"/>
<polyline style="fill:none;stroke:black;" points="419,-205 278,-205 "/>
<path style="fill:none;stroke:black;" d="M278,-205C272,-205 266,-199 266,-193"/>
<polyline style="fill:none;stroke:black;" points="266,-193 266,-150 "/>
<path style="fill:none;stroke:black;" d="M266,-150C266,-144 272,-138 278,-138"/>
<text text-anchor="middle" x="348" y="-187.9" style="font-family:Times New Roman;font-size:14.00;">Cart</text>
<polyline style="fill:none;stroke:black;" points="266,-180 431,-180 "/>
<text text-anchor="start" x="273.5" y="-163.4" style="font-family:Times New Roman;font-size:14.00;">created_at :datetime</text>
<text text-anchor="start" x="273.5" y="-146.4" style="font-family:Times New Roman;font-size:14.00;">updated_at :datetime</text>
</g>
<!-- Cart&#45;&gt;LineItem -->
<g id="edge2" class="edge"><title>Cart&#45;&gt;LineItem</title>
<path style="fill:none;stroke:black;" d="M374,-131C386,-114 400,-94 411,-76"/>
<ellipse style="fill:none;stroke:black;" cx="371.985" cy="-134.527" rx="4.00002" ry="4.00002"/>
<polygon style="fill:black;stroke:black;" points="411.453,-75.3205 420.744,-69.4962 414.226,-71.1603 417,-67 417,-67 417,-67 414.226,-71.1603 413.256,-64.5038 411.453,-75.3205 411.453,-75.3205"/>
</g>
<!-- Product -->
<g id="node4" class="node"><title>Product</title>
<polyline style="fill:none;stroke:black;" points="460,-104 601,-104 "/>
<path style="fill:none;stroke:black;" d="M601,-104C607,-104 613,-110 613,-116"/>
<polyline style="fill:none;stroke:black;" points="613,-116 613,-227 "/>
<path style="fill:none;stroke:black;" d="M613,-227C613,-233 607,-239 601,-239"/>
<polyline style="fill:none;stroke:black;" points="601,-239 460,-239 "/>
<path style="fill:none;stroke:black;" d="M460,-239C454,-239 448,-233 448,-227"/>
<polyline style="fill:none;stroke:black;" points="448,-227 448,-116 "/>
<path style="fill:none;stroke:black;" d="M448,-116C448,-110 454,-104 460,-104"/>
<text text-anchor="middle" x="530" y="-221.9" style="font-family:Times New Roman;font-size:14.00;">Product</text>
<polyline style="fill:none;stroke:black;" points="448,-214 613,-214 "/>
<text text-anchor="start" x="455.5" y="-197.4" style="font-family:Times New Roman;font-size:14.00;">title :string</text>
<text text-anchor="start" x="455.5" y="-180.4" style="font-family:Times New Roman;font-size:14.00;">description :text</text>
<text text-anchor="start" x="455.5" y="-163.4" style="font-family:Times New Roman;font-size:14.00;">image_url :string</text>
<text text-anchor="start" x="455.5" y="-146.4" style="font-family:Times New Roman;font-size:14.00;">price :decimal</text>
<text text-anchor="start" x="455.5" y="-129.4" style="font-family:Times New Roman;font-size:14.00;">created_at :datetime</text>
<text text-anchor="start" x="455.5" y="-112.4" style="font-family:Times New Roman;font-size:14.00;">updated_at :datetime</text>
</g>
<!-- Product&#45;&gt;LineItem -->
<g id="edge4" class="edge"><title>Product&#45;&gt;LineItem</title>
<path style="fill:none;stroke:black;" d="M481,-97C476,-89 471,-82 467,-76"/>
<ellipse style="fill:none;stroke:black;" cx="483.015" cy="-100.527" rx="4.00002" ry="4.00002"/>
<polygon style="fill:black;stroke:black;" points="466.547,-75.3205 464.744,-64.5038 463.774,-71.1603 461,-67 461,-67 461,-67 463.774,-71.1603 457.256,-69.4962 466.547,-75.3205 466.547,-75.3205"/>
</g>
</g>
</svg>
