<?xml version="1.0" encoding="UTF-8" standalone="no"?>
<!DOCTYPE svg PUBLIC "-//W3C//DTD SVG 1.0//EN"
 "http://www.w3.org/TR/2001/REC-SVG-20010904/DTD/svg10.dtd" [
 <!ATTLIST svg xmlns:xlink CDATA #FIXED "http://www.w3.org/1999/xlink">
]>
<!-- Generated by Graphviz version 2.20.2 (Tue Mar &#160;2 19:03:41 UTC 2010)
     For user: (fabrizio) fabrizio,,, -->
<!-- Title: models_diagram Pages: 1 -->
<svg width="452pt" height="174pt"
 viewBox="0.00 0.00 452.00 174.00" xmlns="http://www.w3.org/2000/svg" xmlns:xlink="http://www.w3.org/1999/xlink">
<g id="graph0" class="graph" transform="scale(1 1) rotate(0) translate(4 170)">
<title>models_diagram</title>
<polygon style="fill:white;stroke:white;" points="-4,4 -4,-170 448,-170 448,4 -4,4"/>
<!-- _diagram_info -->
<g id="node1" class="node"><title>_diagram_info</title>
<text text-anchor="start" x="7.5" y="-149.8" style="font-family:Times New Roman;font-size:13.00;">Models diagram</text>
<text text-anchor="start" x="7.5" y="-132.8" style="font-family:Times New Roman;font-size:13.00;">Date: May 26 2011 &#45; 19:00</text>
<text text-anchor="start" x="7.5" y="-115.8" style="font-family:Times New Roman;font-size:13.00;">Migration version: 20110526191148</text>
<text text-anchor="start" x="7.5" y="-98.8" style="font-family:Times New Roman;font-size:13.00;">Generated by RailRoady 1.0.2</text>
<text text-anchor="start" x="7.5" y="-81.8" style="font-family:Times New Roman;font-size:13.00;">http://railroady.prestonlee.com</text>
</g>
<!-- LineItem -->
<g id="node2" class="node"><title>LineItem</title>
<ellipse style="fill:none;stroke:black;" cx="347" cy="-18" rx="53.0059" ry="18"/>
<text text-anchor="middle" x="347" y="-13.9" style="font-family:Times New Roman;font-size:14.00;">LineItem</text>
</g>
<!-- Cart -->
<g id="node3" class="node"><title>Cart</title>
<ellipse style="fill:none;stroke:black;" cx="298" cy="-119" rx="31.9646" ry="18"/>
<text text-anchor="middle" x="298" y="-114.9" style="font-family:Times New Roman;font-size:14.00;">Cart</text>
</g>
<!-- Cart&#45;&gt;LineItem -->
<g id="edge2" class="edge"><title>Cart&#45;&gt;LineItem</title>
<path style="fill:none;stroke:black;" d="M311,-94C318,-79 327,-60 334,-45"/>
<ellipse style="fill:none;stroke:black;" cx="308.985" cy="-97.527" rx="4.00002" ry="4.00002"/>
<polygon style="fill:black;stroke:black;" points="333.939,-45.1381 342.112,-37.8277 335.969,-40.5691 338,-36 338,-36 338,-36 335.969,-40.5691 333.888,-34.1723 333.939,-45.1381 333.939,-45.1381"/>
</g>
<!-- Product -->
<g id="node4" class="node"><title>Product</title>
<ellipse style="fill:none;stroke:black;" cx="396" cy="-119" rx="47.9469" ry="18"/>
<text text-anchor="middle" x="396" y="-114.9" style="font-family:Times New Roman;font-size:14.00;">Product</text>
</g>
<!-- Product&#45;&gt;LineItem -->
<g id="edge4" class="edge"><title>Product&#45;&gt;LineItem</title>
<path style="fill:none;stroke:black;" d="M383,-94C376,-79 367,-60 360,-45"/>
<ellipse style="fill:none;stroke:black;" cx="385.015" cy="-97.527" rx="4.00002" ry="4.00002"/>
<polygon style="fill:black;stroke:black;" points="360.061,-45.1381 360.112,-34.1723 358.031,-40.5691 356,-36 356,-36 356,-36 358.031,-40.5691 351.888,-37.8277 360.061,-45.1381 360.061,-45.1381"/>
</g>
</g>
</svg>
