<?xml version="1.0" encoding="UTF-8" standalone="no"?>
<!DOCTYPE svg PUBLIC "-//W3C//DTD SVG 1.0//EN"
 "http://www.w3.org/TR/2001/REC-SVG-20010904/DTD/svg10.dtd" [
 <!ATTLIST svg xmlns:xlink CDATA #FIXED "http://www.w3.org/1999/xlink">
]>
<!-- Generated by Graphviz version 2.20.2 (Tue Mar &#160;2 19:03:41 UTC 2010)
     For user: (fabrizio) fabrizio,,, -->
<!-- Title: models_diagram Pages: 1 -->
<svg width="642pt" height="248pt"
 viewBox="0.00 0.00 642.00 248.00" xmlns="http://www.w3.org/2000/svg" xmlns:xlink="http://www.w3.org/1999/xlink">
<g id="graph0" class="graph" transform="scale(1 1) rotate(0) translate(4 244)">
<title>models_diagram</title>
<polygon style="fill:white;stroke:white;" points="-4,4 -4,-244 638,-244 638,4 -4,4"/>
<!-- _diagram_info -->
<g id="node1" class="node"><title>_diagram_info</title>
<text text-anchor="start" x="7.5" y="-193.4" style="font-family:Times New Roman;font-size:11.00;">Models diagram</text>
<text text-anchor="start" x="7.5" y="-176.4" style="font-family:Times New Roman;font-size:11.00;">Date: May 26 2011 &#45; 18:34</text>
<text text-anchor="start" x="7.5" y="-159.4" style="font-family:Times New Roman;font-size:11.00;">Migration version: 20110526191148</text>
<text text-anchor="start" x="7.5" y="-142.4" style="font-family:Times New Roman;font-size:11.00;">Generated by RailRoad 0.5.0</text>
</g>
<!-- LineItem -->
<g id="node2" class="node"><title>LineItem</title>
<polyline style="fill:none;stroke:black;" points="391,-0 532,-0 "/>
<path style="fill:none;stroke:black;" d="M532,-0C538,-0 544,-6 544,-12"/>
<polyline style="fill:none;stroke:black;" points="544,-12 544,-55 "/>
<path style="fill:none;stroke:black;" d="M544,-55C544,-61 538,-67 532,-67"/>
<polyline style="fill:none;stroke:black;" points="532,-67 391,-67 "/>
<path style="fill:none;stroke:black;" d="M391,-67C385,-67 379,-61 379,-55"/>
<polyline style="fill:none;stroke:black;" points="379,-55 379,-12 "/>
<path style="fill:none;stroke:black;" d="M379,-12C379,-6 385,-0 391,-0"/>
<text text-anchor="middle" x="461" y="-49.9" style="font-family:Times New Roman;font-size:11.00;">LineItem</text>
<polyline style="fill:none;stroke:black;" points="379,-42 544,-42 "/>
<text text-anchor="start" x="386.5" y="-25.4" style="font-family:Times New Roman;font-size:11.00;">created_at :datetime</text>
<text text-anchor="start" x="386.5" y="-8.4" style="font-family:Times New Roman;font-size:11.00;">updated_at :datetime</text>
</g>
<!-- Cart -->
<g id="node3" class="node"><title>Cart</title>
<polyline style="fill:none;stroke:black;" points="300,-138 441,-138 "/>
<path style="fill:none;stroke:black;" d="M441,-138C447,-138 453,-144 453,-150"/>
<polyline style="fill:none;stroke:black;" points="453,-150 453,-193 "/>
<path style="fill:none;stroke:black;" d="M453,-193C453,-199 447,-205 441,-205"/>
<polyline style="fill:none;stroke:black;" points="441,-205 300,-205 "/>
<path style="fill:none;stroke:black;" d="M300,-205C294,-205 288,-199 288,-193"/>
<polyline style="fill:none;stroke:black;" points="288,-193 288,-150 "/>
<path style="fill:none;stroke:black;" d="M288,-150C288,-144 294,-138 300,-138"/>
<text text-anchor="middle" x="370" y="-187.9" style="font-family:Times New Roman;font-size:11.00;">Cart</text>
<polyline style="fill:none;stroke:black;" points="288,-180 453,-180 "/>
<text text-anchor="start" x="295.5" y="-163.4" style="font-family:Times New Roman;font-size:11.00;">created_at :datetime</text>
<text text-anchor="start" x="295.5" y="-146.4" style="font-family:Times New Roman;font-size:11.00;">updated_at :datetime</text>
</g>
<!-- Cart&#45;&gt;LineItem -->
<g id="edge2" class="edge"><title>Cart&#45;&gt;LineItem</title>
<path style="fill:none;stroke:black;" d="M397,-130C409,-111 423,-91 435,-74"/>
<polygon style="fill:black;stroke:black;" points="397.3,-129.52 388.184,-135.615 394.65,-133.76 392,-138 392,-138 392,-138 394.65,-133.76 395.816,-140.385 397.3,-129.52 397.3,-129.52"/>
<ellipse style="fill:black;stroke:black;" cx="437.015" cy="-70.473" rx="4.00002" ry="4.00002"/>
</g>
<!-- Product -->
<g id="node4" class="node"><title>Product</title>
<polyline style="fill:none;stroke:black;" points="482,-104 623,-104 "/>
<path style="fill:none;stroke:black;" d="M623,-104C629,-104 635,-110 635,-116"/>
<polyline style="fill:none;stroke:black;" points="635,-116 635,-227 "/>
<path style="fill:none;stroke:black;" d="M635,-227C635,-233 629,-239 623,-239"/>
<polyline style="fill:none;stroke:black;" points="623,-239 482,-239 "/>
<path style="fill:none;stroke:black;" d="M482,-239C476,-239 470,-233 470,-227"/>
<polyline style="fill:none;stroke:black;" points="470,-227 470,-116 "/>
<path style="fill:none;stroke:black;" d="M470,-116C470,-110 476,-104 482,-104"/>
<text text-anchor="middle" x="552" y="-221.9" style="font-family:Times New Roman;font-size:11.00;">Product</text>
<polyline style="fill:none;stroke:black;" points="470,-214 635,-214 "/>
<text text-anchor="start" x="477.5" y="-197.4" style="font-family:Times New Roman;font-size:11.00;">title :string</text>
<text text-anchor="start" x="477.5" y="-180.4" style="font-family:Times New Roman;font-size:11.00;">description :text</text>
<text text-anchor="start" x="477.5" y="-163.4" style="font-family:Times New Roman;font-size:11.00;">image_url :string</text>
<text text-anchor="start" x="477.5" y="-146.4" style="font-family:Times New Roman;font-size:11.00;">price :decimal</text>
<text text-anchor="start" x="477.5" y="-129.4" style="font-family:Times New Roman;font-size:11.00;">created_at :datetime</text>
<text text-anchor="start" x="477.5" y="-112.4" style="font-family:Times New Roman;font-size:11.00;">updated_at :datetime</text>
</g>
<!-- Product&#45;&gt;LineItem -->
<g id="edge4" class="edge"><title>Product&#45;&gt;LineItem</title>
<path style="fill:none;stroke:black;" d="M502,-95C497,-88 492,-81 487,-74"/>
<polygon style="fill:black;stroke:black;" points="502.144,-95.2584 503.066,-106.185 504.572,-99.6292 507,-104 507,-104 507,-104 504.572,-99.6292 510.934,-101.815 502.144,-95.2584 502.144,-95.2584"/>
<ellipse style="fill:black;stroke:black;" cx="484.985" cy="-70.473" rx="4.00002" ry="4.00002"/>
</g>
</g>
</svg>
